<?xml version="1.0" encoding="UTF-8"?>
<svg id="Capa_1" data-name="Capa 1" xmlns="http://www.w3.org/2000/svg" viewBox="0 0 150 150">
  <defs>
    <style>
      .cls-1 {
        fill: #1f1f1b;
      }
    </style>
  </defs>
  <path class="cls-1" d="M93.72.77c-3.26,12.95-16.35,20.86-29.35,17.7-4.77-1.16-8.87-3.66-11.99-7-.09.53-.2,1.07-.33,1.6-3.11,12.79-15.8,20.72-28.58,18.06,3.62,5.46,5.04,12.35,3.37,19.21-2.73,11.21-12.83,18.7-23.9,18.57-.09,1.59-.15,3.19-.15,4.8,0,41.7,32.33,75.51,72.21,75.51s72.21-33.81,72.21-75.51c0-34.93-22.68-64.32-53.49-72.95M108.72,56.91c.45,1.21-.76,2.68-2.04,2.8-1.01.1-2.41-.1-2.96-.19-.12-.02-.19-.14-.14-.26.22-.54.86-1.97,1.69-2.69,1.04-.9,3-.86,3.45.35M101.91,13.66c.66-.77,1.82-1.59,2.27-1.9.1-.07.24-.03.28.09.22.55.74,2.02.64,3.11-.13,1.37-1.57,2.7-2.73,2.14-1.16-.56-1.3-2.46-.46-3.43M100.1,27.16c.75-1.05,2.64-.87,3.46.12.65.78,1.27,2.05,1.5,2.55.05.11-.01.24-.13.26-.58.12-2.11.4-3.18.11-1.33-.36-2.4-1.99-1.65-3.05M78.84,34.02c.32-.49,1.21-1.78,2.17-2.33,1.19-.69,3.11-.29,3.32.99.22,1.27-1.25,2.48-2.53,2.36-1.01-.1-2.35-.56-2.87-.75-.11-.04-.16-.18-.09-.28M57.31,30.52c.54-1.18,2.43-1.35,3.42-.53.78.65,1.63,1.78,1.95,2.23.07.1.03.24-.08.28-.54.23-2,.79-3.1.7-1.37-.1-2.73-1.51-2.19-2.68M33.35,64.53c.02-.12.14-.19.26-.14.54.22,1.97.86,2.69,1.69.9,1.04.86,3-.35,3.45-1.21.45-2.67-.76-2.8-2.04-.1-1.01.1-2.41.19-2.96M22.94,92.55c-.55,1.26-2.33,2.08-3.26,1.18-.93-.9-.47-2.74.63-3.41.87-.53,2.22-.95,2.75-1.1.12-.03.23.05.24.17.03.59.08,2.15-.36,3.16M22.8,77.58c.75-1.05,2.64-.87,3.46.12.65.78,1.27,2.05,1.5,2.55.05.11-.01.24-.13.26-.58.12-2.11.4-3.18.11-1.33-.36-2.4-1.99-1.65-3.05M30.25,105.89c-.58.12-2.11.4-3.18.11-1.33-.36-2.4-1.99-1.65-3.05.75-1.05,2.64-.87,3.46.12.65.78,1.27,2.05,1.5,2.55.05.11-.01.24-.13.26M37.49,122.82c-.57.12-2.11.4-3.18.11-1.33-.36-2.4-1.99-1.65-3.05.75-1.05,2.64-.87,3.46.12.65.78,1.27,2.05,1.5,2.55.05.11-.01.24-.13.26M38.66,44.19c.32-.49,1.21-1.77,2.17-2.32,1.19-.69,3.11-.29,3.32.99.22,1.27-1.25,2.49-2.53,2.36-1.01-.1-2.35-.56-2.87-.75-.12-.04-.16-.18-.09-.28M42.33,104.6c-1.21.45-2.68-.76-2.8-2.04-.1-1.01.11-2.41.19-2.96.02-.12.14-.19.26-.14.54.22,1.97.86,2.69,1.69.9,1.04.86,3-.34,3.45M44.19,84.08c-.36,1.33-1.99,2.4-3.05,1.65-1.05-.75-.88-2.64.12-3.46.78-.65,2.05-1.27,2.55-1.5.11-.05.24.01.26.13.12.58.4,2.11.11,3.18M45.62,53.67c.75-1.05,2.64-.87,3.46.12.65.78,1.27,2.05,1.5,2.55.05.11-.01.24-.13.26-.58.12-2.11.4-3.18.11-1.33-.36-2.4-1.99-1.65-3.05M51.75,132.62c-.49,1.29-2.23,2.18-3.2,1.33-.97-.85-.6-2.72.47-3.43.85-.56,2.17-1.05,2.69-1.23.12-.04.24.04.25.16.06.59.18,2.14-.22,3.17M55.83,115.05c-.54.23-2,.79-3.1.71-1.37-.1-2.73-1.51-2.2-2.68.54-1.18,2.43-1.35,3.42-.53.78.65,1.63,1.78,1.95,2.23.07.1.03.24-.08.28M67.99,132.88c-1.01-.1-2.35-.56-2.87-.75-.11-.04-.16-.18-.09-.28.32-.49,1.21-1.77,2.17-2.32,1.19-.69,3.11-.29,3.32.99.22,1.27-1.25,2.49-2.53,2.36M75.71,121.35c-.67,1.1-2.57,1.06-3.46.13-.7-.73-1.41-1.96-1.68-2.44-.06-.11,0-.24.11-.27.57-.16,2.08-.55,3.16-.34,1.35.26,2.54,1.82,1.87,2.92M82.06,139.28c-1.25-.33-1.74-2.17-1.09-3.29.51-.88,1.49-1.9,1.87-2.29.09-.09.23-.07.29.03.32.5,1.11,1.84,1.21,2.94.13,1.37-1.04,2.94-2.28,2.61M92.93,123.95c-.19.56-.73,2.02-1.51,2.8-.98.97-2.93,1.06-3.47-.12s.58-2.72,1.85-2.92c1-.16,2.41-.05,2.96,0,.12.01.2.13.16.25M94.59,114.87c-1.29.03-2.27-1.6-1.96-2.85.24-.99.9-2.24,1.16-2.72.06-.11.2-.13.29-.05.44.39,1.58,1.46,1.98,2.49.5,1.28-.18,3.11-1.47,3.14M97.36,73.26c-.81,1.12-1.99,1.53-3.29,1.8-.34.07-.78.11-.92.5-.11.3-.05.51.32.53.42.01.87,0,1.32-.09.39-.07.74.24.7.63-.37,3.55-1.51,11.54-4.73,17.66-4.26,8.11-14.62,13.92-24.1,9.61-9.48-4.3-15.69-20.64-12.16-36.73,3.52-16.09,13.07-23.67,25.43-23,10.18.55,12.36,11.9,12.81,15.88.08.73-.46,1.37-1.2,1.41-.86.04-2.26.13-4.45.29-3.53.26-7.55,1.57-9.43,2.24-.57.2-1.2-.01-1.51-.53-.26-.44-.64-.86-1.11-.8-.95.13-1.47.2-2.32,7.76-.85,7.56.74,8.35,2.01,9.33,1.25.96,2.42,1.11,2.46,1.08,0,0-.54,1.3-.57,2.62,0,.23.29.32.43.14.41-.57,1.11-1.49,1.83-2.29.47-.53.18-1.38-.51-1.49-1.1-.18-2.3-.72-2.88-2.14-1.22-3-1.9-10.15,4.89-12.36,6.78-2.21,12.58-1.79,12.58-1.79.23.02.45.05.68.08,1.41.21,2.93.79,3.75,2.03,1.34,2.03,1.4,5.62-.04,7.62M102.54,44.65c-1.04.9-3,.86-3.45-.35-.45-1.21.76-2.68,2.04-2.8,1.01-.1,2.41.11,2.96.2.12.02.19.14.14.26-.22.54-.86,1.97-1.69,2.69M106.04,131.72c-1.21.45-2.68-.76-2.8-2.04-.1-1.01.11-2.41.19-2.96.02-.12.14-.19.26-.14.54.22,1.97.86,2.69,1.69.9,1.04.86,3-.34,3.45M107.26,92.42c.39-.44,1.46-1.58,2.48-1.98,1.28-.51,3.11.17,3.14,1.46.03,1.29-1.6,2.28-2.85,1.97-.99-.24-2.24-.89-2.73-1.16-.11-.06-.13-.2-.05-.29M109.08,109.2c-.7-.73-1.41-1.96-1.68-2.44-.06-.11,0-.24.11-.27.57-.16,2.08-.55,3.16-.34,1.35.26,2.54,1.82,1.87,2.92-.67,1.1-2.57,1.06-3.46.13M115.7,123.51c-1.01-.1-2.35-.56-2.87-.75-.12-.04-.16-.18-.09-.28.32-.49,1.21-1.78,2.17-2.33,1.19-.69,3.11-.29,3.32.99.22,1.27-1.25,2.49-2.53,2.36M118.78,71.76c-.23.54-.9,1.95-1.75,2.65-1.06.88-3.02.8-3.44-.42-.43-1.22.82-2.66,2.1-2.75,1.01-.07,2.41.16,2.95.26.12.02.19.15.14.26M119.62,43.81c-.13,1.37-1.57,2.7-2.73,2.14-1.16-.56-1.3-2.46-.46-3.43.66-.77,1.81-1.59,2.27-1.9.1-.07.24-.03.28.09.22.55.74,2.02.64,3.12M120.45,31.36c-1-.18-2.3-.75-2.8-.98-.11-.05-.15-.19-.07-.29.36-.47,1.35-1.67,2.35-2.14,1.25-.59,3.12-.03,3.23,1.25.11,1.29-1.45,2.38-2.71,2.15M121.1,84.42c-.05-.11,0-.24.12-.27.57-.14,2.1-.47,3.17-.22,1.34.31,2.46,1.91,1.75,2.99-.71,1.08-2.61.96-3.46,0-.67-.76-1.34-2.01-1.59-2.5M128.46,103.32c-.67,1.1-2.57,1.06-3.46.13-.7-.73-1.41-1.96-1.68-2.44-.06-.11,0-.24.11-.27.57-.16,2.08-.55,3.16-.34,1.35.26,2.54,1.82,1.87,2.92M127.09,63.97c-.97.3-2.38.38-2.94.4-.12,0-.22-.1-.19-.22.11-.58.45-2.1,1.12-2.98.84-1.09,2.76-1.45,3.45-.35.68,1.1-.21,2.77-1.44,3.15M132.56,49.69c-.83.58-2.15,1.1-2.67,1.29-.11.04-.24-.03-.25-.15-.07-.58-.22-2.14.15-3.18.46-1.3,2.18-2.23,3.17-1.4.99.83.66,2.7-.4,3.44M135.99,94.22c-1.22.43-2.66-.82-2.75-2.1-.07-1.01.16-2.41.26-2.95.02-.12.15-.19.26-.14.54.23,1.95.9,2.65,1.75.88,1.06.8,3.01-.42,3.44M136.79,78.67c-1-.18-2.3-.74-2.8-.98-.11-.05-.15-.19-.07-.29.36-.46,1.35-1.67,2.35-2.14,1.25-.59,3.12-.03,3.23,1.25.11,1.29-1.45,2.38-2.71,2.15"/>
</svg>